<svg xmlns="http://www.w3.org/2000/svg" viewBox="0 0 100 100" x="0px" y="0px"><title>0000 Expand Business CIrcle Icons</title><path d="M50,1.3999A48.6001,48.6001,0,1,0,98.6001,50,48.65494,48.65494,0,0,0,50,1.3999Zm0,96A47.3999,47.3999,0,1,1,97.3999,50,47.45379,47.45379,0,0,1,50,97.3999Z"/><path d="M49,36.95752H34.5a.6001.6001,0,1,0,0,1.20019H49a.6001.6001,0,1,0,0-1.20019Z"/><path d="M34.5,49.1377H44a.6001.6001,0,0,0,0-1.2002H34.5a.6001.6001,0,0,0,0,1.2002Z"/><path d="M49,59.01563H34.5a.6001.6001,0,1,0,0,1.20019H49a.6001.6001,0,1,0,0-1.20019Z"/><path d="M81.65283,45.36133h-3.145a10.88389,10.88389,0,0,0-.78857-1.90528l2.22314-2.22314a.6.6,0,0,0,0-.84863L76.23,36.67188a.6.6,0,0,0-.84863,0L73.1582,38.895a10.88271,10.88271,0,0,0-1.90527-.78857v-3.145a.59994.59994,0,0,0-.6001-.6001h-2.0249V30.05957A4.08731,4.08731,0,0,0,64.54541,25.977H31.46924a4.08689,4.08689,0,0,0-4.082,4.08252V69.94043A4.07489,4.07489,0,0,0,31.18335,73.994a.57685.57685,0,0,0,.14331.02893H68.02783A3.94415,3.94415,0,0,0,71.96729,70.083V68.22217a.6.6,0,0,0-.6001-.6001H68.62793V62.81152h2.0249a.59994.59994,0,0,0,.6001-.60009V59.06689a10.88271,10.88271,0,0,0,1.90527-.78857l2.22315,2.22314a.6.6,0,0,0,.84863,0l3.7124-3.7124a.6.6,0,0,0,0-.84863l-2.22314-2.22314a10.91,10.91,0,0,0,.78857-1.90577h3.145a.59994.59994,0,0,0,.6001-.60009v-5.25A.59994.59994,0,0,0,81.65283,45.36133Zm-.6001,5.25h-2.998a.60034.60034,0,0,0-.58057.44824,9.73045,9.73045,0,0,1-1.01709,2.4585.6.6,0,0,0,.09326.72754l2.11914,2.11914-2.86377,2.86377-2.11914-2.11914a.60058.60058,0,0,0-.72754-.09327,9.706,9.706,0,0,1-2.458,1.01709.60033.60033,0,0,0-.44825.58057v2.99756h-4.0498V58.61377a.60034.60034,0,0,0-.44824-.58057,9.73014,9.73014,0,0,1-2.4585-1.01709.59647.59647,0,0,0-.72754.09327l-2.11914,2.11914-2.86377-2.86377,2.11914-2.11914a.6.6,0,0,0,.09326-.72754,9.73081,9.73081,0,0,1-1.01709-2.4585.60032.60032,0,0,0-.58056-.44824H55.00293V46.56152h2.99756a.60032.60032,0,0,0,.58056-.44824,9.70692,9.70692,0,0,1,1.01709-2.458.6.6,0,0,0-.09326-.72754l-2.11914-2.11914,2.86377-2.86377L62.36865,40.064a.59818.59818,0,0,0,.72754.09327,9.73014,9.73014,0,0,1,2.4585-1.01709.60034.60034,0,0,0,.44824-.58057v-2.998h4.0498v2.998a.60033.60033,0,0,0,.44825.58057,9.706,9.706,0,0,1,2.458,1.01709.601.601,0,0,0,.72754-.09327l2.11914-2.11914,2.86377,2.86377-2.11914,2.11914a.6.6,0,0,0-.09326.72754,9.70619,9.70619,0,0,1,1.01709,2.458.60034.60034,0,0,0,.58057.44824h2.998ZM70.76709,70.083a2.74269,2.74269,0,0,1-2.73926,2.73974h-33.873A3.92666,3.92666,0,0,0,35.26611,70.083V68.82227h35.501ZM34.666,67.62207a.6.6,0,0,0-.6001.6001V70.083a2.73888,2.73888,0,0,1-2.668,2.73254,2.88158,2.88158,0,0,1-2.81055-2.87512V30.05957a2.88543,2.88543,0,0,1,2.88184-2.88232H64.54541a2.88553,2.88553,0,0,1,2.88232,2.88232v4.30176h-2.0249a.6.6,0,0,0-.6001.6001v3.145A10.90989,10.90989,0,0,0,62.897,38.895l-2.22314-2.22314a.6.6,0,0,0-.84863,0l-3.71241,3.7124a.6.6,0,0,0,0,.84863l2.22315,2.22314a10.88393,10.88393,0,0,0-.78858,1.90528H54.40283a.6.6,0,0,0-.6001.6001v5.25a.6.6,0,0,0,.6001.60009h3.14453a10.9108,10.9108,0,0,0,.78858,1.90577l-2.22315,2.22314a.6.6,0,0,0,0,.84863l3.71241,3.7124a.6.6,0,0,0,.84863,0L62.897,58.27832a10.90989,10.90989,0,0,0,1.90576.78857v3.14454a.6.6,0,0,0,.6001.60009h2.0249v4.81055Z"/><path d="M68.02783,42.48633a6.1001,6.1001,0,1,0,6.1001,6.1001A6.1068,6.1068,0,0,0,68.02783,42.48633Zm4.8999,6.1001a4.8999,4.8999,0,1,1-4.8999-4.89991A4.90565,4.90565,0,0,1,72.92773,48.58643Z"/><text x="0" y="115" fill="#000000" font-size="5px" font-weight="bold" font-family="'Helvetica Neue', Helvetica, Arial-Unicode, Arial, Sans-serif"></text><text x="0" y="120" fill="#000000" font-size="5px" font-weight="bold" font-family="'Helvetica Neue', Helvetica, Arial-Unicode, Arial, Sans-serif"></text></svg>